<?xml version="1.0" encoding="UTF-8" standalone="no"?>
<!DOCTYPE svg PUBLIC "-//W3C//DTD SVG 1.1//EN" "http://www.w3.org/Graphics/SVG/1.1/DTD/svg11.dtd">
<svg width="100%" height="100%" title="petition town!" viewBox="0 0 1000 500" version="1.1" xmlns="http://www.w3.org/2000/svg" xmlns:xlink="http://www.w3.org/1999/xlink" xml:space="preserve" xmlns:serif="http://www.serif.com/" style="fill-rule:evenodd;clip-rule:evenodd;stroke-linejoin:round;stroke-miterlimit:2;">
    <g transform="matrix(4.76995,0,0,4.76995,-959.347,181.781)">
        <path d="M407.679,57.954L406.783,57.954C405.29,57.954 404.096,59.149 404.096,60.642L404.096,63.545C404.096,65.038 405.29,66.233 406.783,66.233L407.679,66.233C409.098,66.233 410.292,65.038 410.292,63.545L410.292,60.642C410.292,59.149 409.098,57.954 407.679,57.954Z" style="fill-rule:nonzero;"/>
    </g>
    <g transform="matrix(4.76995,0,0,4.76995,-959.347,-4.70011)">
        <path d="M407.679,57.954L406.783,57.954C405.29,57.954 404.096,59.149 404.096,60.642L404.096,89.085C404.096,90.579 405.29,91.773 406.783,91.773L407.679,91.773C409.098,91.773 410.292,90.579 410.292,89.085L410.292,60.642C410.292,59.149 409.098,57.954 407.679,57.954Z" style="fill-rule:nonzero;"/>
    </g>
    <g transform="matrix(4.76995,0,0,4.76995,-1038.19,-275.726)">
        <path d="M228.431,58.477L220.816,58.477C219.323,58.477 218.129,59.746 218.129,61.164L218.129,102.971C218.129,104.39 219.323,105.584 220.816,105.584L221.712,105.584C223.131,105.584 224.325,104.39 224.325,102.971L224.325,96.775C224.325,95.282 225.445,94.087 226.714,94.087L229.103,94.087C239.032,94.087 240.973,87.144 240.973,75.946C240.973,63.553 237.39,58.477 228.431,58.477ZM229.103,87.891L226.714,87.891C225.445,87.891 224.325,86.697 224.325,85.203L224.325,67.435C224.325,65.942 225.296,64.748 226.416,64.748L228.431,64.748C232.089,64.748 234.777,64.748 234.777,75.946C234.777,87.891 232.537,87.891 229.103,87.891Z" style="fill-rule:nonzero;"/>
        <path d="M255.158,64.673L263.295,64.673C264.789,64.673 265.983,63.479 265.983,61.986L265.983,61.09C265.983,59.671 264.789,58.477 263.295,58.477L248.962,58.477C247.469,58.477 246.274,59.671 246.274,61.09L246.274,102.971C246.274,104.465 247.469,105.659 248.962,105.659L263.295,105.659C264.714,105.659 265.908,104.465 265.908,102.971L265.908,102.076C265.908,100.582 264.714,99.388 263.295,99.388L255.158,99.388C253.74,99.388 252.545,98.193 252.545,96.7L252.545,88.638C252.545,87.144 253.74,85.95 255.158,85.95L258.816,85.95C260.309,85.95 261.504,84.755 261.504,83.262L261.504,82.366C261.504,80.873 260.309,79.679 258.816,79.679L255.158,79.679C253.74,79.679 252.545,78.484 252.545,76.991L252.545,67.361C252.545,65.868 253.74,64.673 255.158,64.673Z" style="fill-rule:nonzero;"/>
        <path d="M290.918,58.477L273.971,58.477C272.478,58.477 271.284,59.671 271.284,61.09L271.284,61.986C271.284,63.479 272.478,64.673 273.971,64.673L276.659,64.673C278.152,64.673 279.346,65.868 279.346,67.361L279.346,102.971C279.346,104.465 280.541,105.659 282.034,105.659L282.93,105.659C284.423,105.659 285.617,104.465 285.617,102.971L285.617,67.361C285.617,65.868 286.812,64.673 288.305,64.673L290.918,64.673C292.411,64.673 293.606,63.479 293.606,61.986L293.606,61.09C293.606,59.671 292.411,58.477 290.918,58.477Z" style="fill-rule:nonzero;"/>
        <path d="M303.236,58.477L302.34,58.477C300.847,58.477 299.653,59.671 299.653,61.09L299.653,102.971C299.653,104.465 300.847,105.659 302.34,105.659L303.236,105.659C304.655,105.659 305.849,104.465 305.849,102.971L305.849,61.09C305.849,59.671 304.655,58.477 303.236,58.477Z" style="fill-rule:nonzero;"/>
        <path d="M331.456,58.477L314.509,58.477C313.016,58.477 311.822,59.671 311.822,61.09L311.822,61.986C311.822,63.479 313.016,64.673 314.509,64.673L317.197,64.673C318.69,64.673 319.884,65.868 319.884,67.361L319.884,102.971C319.884,104.465 321.079,105.659 322.572,105.659L323.468,105.659C324.961,105.659 326.155,104.465 326.155,102.971L326.155,67.361C326.155,65.868 327.35,64.673 328.843,64.673L331.456,64.673C332.949,64.673 334.144,63.479 334.144,61.986L334.144,61.09C334.144,59.671 332.949,58.477 331.456,58.477Z" style="fill-rule:nonzero;"/>
        <path d="M343.774,58.477L342.878,58.477C341.385,58.477 340.191,59.671 340.191,61.09L340.191,102.971C340.191,104.465 341.385,105.659 342.878,105.659L343.774,105.659C345.193,105.659 346.387,104.465 346.387,102.971L346.387,61.09C346.387,59.671 345.193,58.477 343.774,58.477Z" style="fill-rule:nonzero;"/>
        <path d="M366.619,57.805C357.138,57.805 352.36,65.942 352.36,81.993C352.36,98.193 357.138,106.331 366.619,106.331C376.1,106.331 380.878,98.193 380.878,81.993C380.878,65.942 376.1,57.805 366.619,57.805ZM366.619,100.135C364.603,100.135 358.556,100.135 358.556,81.993C358.556,64.001 364.379,64.001 366.619,64.001C368.784,64.001 374.607,64.001 374.607,81.993C374.607,100.135 368.56,100.135 366.619,100.135Z" style="fill-rule:nonzero;"/>
        <path d="M407.53,58.477L406.634,58.477C405.216,58.477 404.021,59.671 404.021,61.09L404.021,84.83C404.021,86.323 403.499,86.398 402.901,85.054L392.375,60.866C391.778,59.522 390.21,58.477 388.717,58.477C387.298,58.477 386.179,59.671 386.179,61.09L386.179,102.971C386.179,104.465 387.373,105.659 388.866,105.659L389.762,105.659C391.18,105.659 392.45,104.465 392.45,102.971L392.45,79.231C392.45,77.738 392.898,77.663 393.495,79.007L404.021,103.195C404.544,104.539 406.186,105.659 407.679,105.659C409.098,105.659 410.218,104.465 410.218,102.971L410.218,61.09C410.218,59.671 409.023,58.477 407.53,58.477Z" style="fill-rule:nonzero;"/>
        <path d="M299.13,114.774L282.183,114.774C280.69,114.774 279.496,115.968 279.496,117.387L279.496,118.282C279.496,119.775 280.69,120.97 282.183,120.97L284.871,120.97C286.364,120.97 287.559,122.164 287.559,123.658L287.559,159.268C287.559,160.761 288.753,161.956 290.246,161.956L291.142,161.956C292.635,161.956 293.83,160.761 293.83,159.268L293.83,123.658C293.83,122.164 295.024,120.97 296.517,120.97L299.13,120.97C300.623,120.97 301.818,119.775 301.818,118.282L301.818,117.387C301.818,115.968 300.623,114.774 299.13,114.774Z" style="fill-rule:nonzero;"/>
        <path d="M318.391,114.102C308.91,114.102 304.132,122.239 304.132,138.29C304.132,154.49 308.91,162.628 318.391,162.628C327.873,162.628 332.65,154.49 332.65,138.29C332.65,122.239 327.873,114.102 318.391,114.102ZM318.391,156.431C316.376,156.431 310.328,156.431 310.328,138.29C310.328,120.298 316.152,120.298 318.391,120.298C320.556,120.298 326.379,120.298 326.379,138.29C326.379,156.431 320.332,156.431 318.391,156.431Z" style="fill-rule:nonzero;"/>
        <path d="M376.772,114.774L375.801,114.774C374.308,114.774 372.89,115.893 372.666,117.387L367.739,145.532C367.515,147.025 367.067,147.025 366.843,145.532L362.139,117.387C361.915,115.893 360.497,114.774 359.004,114.774L358.033,114.774C356.54,114.774 355.122,115.893 354.898,117.387L349.971,145.532C349.672,147.025 349.299,147.025 349.075,145.532L344.371,117.387C344.073,115.893 342.729,114.774 341.236,114.774L340.265,114.774C338.772,114.774 337.802,115.893 338.026,117.387L345.043,159.268C345.267,160.761 346.686,161.956 348.104,161.956L350.792,161.956C352.21,161.956 353.629,160.761 353.927,159.268L357.959,135.826C358.257,134.408 358.631,134.408 358.855,135.826L362.811,159.268C363.035,160.761 364.454,161.956 365.947,161.956L368.56,161.956C370.053,161.956 371.397,160.761 371.695,159.268L379.012,117.387C379.236,115.893 378.265,114.774 376.772,114.774Z" style="fill-rule:nonzero;"/>
        <path d="M407.53,114.774L406.634,114.774C405.216,114.774 404.021,115.968 404.021,117.387L404.021,141.127C404.021,142.62 403.499,142.695 402.901,141.351L392.375,117.163C391.778,115.819 390.21,114.774 388.717,114.774C387.298,114.774 386.179,115.968 386.179,117.387L386.179,159.268C386.179,160.761 387.373,161.956 388.866,161.956L389.762,161.956C391.18,161.956 392.45,160.761 392.45,159.268L392.45,135.528C392.45,134.035 392.898,133.96 393.495,135.304L404.021,159.492C404.544,160.836 406.186,161.956 407.679,161.956C409.098,161.956 410.218,160.761 410.218,159.268L410.218,117.387C410.218,115.968 409.023,114.774 407.53,114.774Z" style="fill-rule:nonzero;"/>
    </g>
</svg>
